HIERARCHY
ROOT Hips
{
	OFFSET 0.000000 88.474243 0.000000
	CHANNELS 6 Xposition Yposition Zposition Zrotation Yrotation Xrotation 
	JOINT Hips_Spine
	{
		OFFSET 0.000000 0.000000 0.000000
		CHANNELS 3 Zrotation Yrotation Xrotation
		JOINT Spine
		{
			OFFSET 0.005100 8.711998 -0.691000
			CHANNELS 3 Zrotation Yrotation Xrotation
			JOINT Spine1
			{
				OFFSET -0.009200 8.660301 -1.275000
				CHANNELS 3 Zrotation Yrotation Xrotation
				JOINT Spine2
				{
					OFFSET 0.006300 9.852501 -1.857000
					CHANNELS 3 Zrotation Yrotation Xrotation
					JOINT Spine2_Neck
					{
						OFFSET 0.000000 0.000000 0.000000
						CHANNELS 3 Zrotation Yrotation Xrotation
						JOINT Neck
						{
							OFFSET 0.016300 11.420799 -0.263300
							CHANNELS 3 Zrotation Yrotation Xrotation
							End Site #name: Head
							{
								OFFSET -0.019200 9.262405 2.362500
							}
						}
					}
					JOINT Spine2_LeftShoulder
					{
						OFFSET 0.000000 0.000000 0.000000
						CHANNELS 3 Zrotation Yrotation Xrotation
						JOINT LeftShoulder
						{
							OFFSET 5.616900 6.732201 -0.345700
							CHANNELS 3 Zrotation Yrotation Xrotation
							JOINT LeftArm
							{
								OFFSET 10.664888 -0.183372 -2.440700
								CHANNELS 3 Zrotation Yrotation Xrotation
								JOINT LeftForeArm
								{
									OFFSET 27.459126 0.000000 0.000000
									CHANNELS 3 Zrotation Yrotation Xrotation
									End Site #name: LeftHand
									{
										OFFSET 21.306858 0.000000 0.000000
									}
								}
							}
						}
					}
					JOINT Spine2_RightShoulder
					{
						OFFSET 0.000000 0.000000 0.000000
						CHANNELS 3 Zrotation Yrotation Xrotation
						JOINT RightShoulder
						{
							OFFSET -5.580300 6.737503 -0.344400
							CHANNELS 3 Zrotation Yrotation Xrotation
							JOINT RightArm
							{
								OFFSET -10.679335 -0.188484 -2.383900
								CHANNELS 3 Zrotation Yrotation Xrotation
								JOINT RightForeArm
								{
									OFFSET -27.503529 0.000000 0.000000
									CHANNELS 3 Zrotation Yrotation Xrotation
									End Site #name: RightHand
									{
										OFFSET -21.306808 0.000000 0.000000
									}
								}
							}
						}
					}
				}
			}
		}
	}
	JOINT Hips_LeftUpLeg
	{
		OFFSET 0.000000 0.000000 0.000000
		CHANNELS 3 Zrotation Yrotation Xrotation
		JOINT LeftUpLeg
		{
			OFFSET 6.857700 -6.739601 0.312100
			CHANNELS 3 Zrotation Yrotation Xrotation
			JOINT LeftLeg
			{
				OFFSET -0.367590 -34.731552 -4.572400
				CHANNELS 3 Zrotation Yrotation Xrotation
				End Site #name: LeftFoot
				{
					OFFSET 0.367590 -34.656704 -6.067400
				}
			}
		}
	}
	JOINT Hips_RightUpLeg
	{
		OFFSET 0.000000 0.000000 0.000000
		CHANNELS 3 Zrotation Yrotation Xrotation
		JOINT RightUpLeg
		{
			OFFSET -6.876100 -6.733299 0.301000
			CHANNELS 3 Zrotation Yrotation Xrotation
			JOINT RightLeg
			{
				OFFSET 0.347353 -34.795158 -4.515900
				CHANNELS 3 Zrotation Yrotation Xrotation
				End Site #name: RightFoot
				{
					OFFSET -0.347353 -34.589367 -6.070300
				}
			}
		}
	}
}
MOTION
Frames: 6
Frame Time: 0.041667
-0.702858 6.375645 2.118477 -2.189522 8.912157 -4.880733 0.000000 0.000000 0.000000 2.301708 -7.237254 8.047386 1.439916 -0.930789 1.395858 0.000000 0.000000 0.000000 1.668677 -0.783961 1.303522 -2.205031 6.059234 -9.526748 1.491112 -0.785485 1.341712 0.830289 -2.726072 0.799043 -54.687957 10.181072 42.106981 -179.524735 -88.317088 179.805181 1.689723 -0.814004 1.178995 2.814195 4.138895 0.818611 52.868336 45.212203 23.748958 -0.218214 60.400546 -0.071167 0.000000 0.000000 -0.000000 11.081704 10.160037 -28.124662 -10.888951 4.527891 48.597090 -0.000000 0.000000 0.000000 -3.268858 -5.773108 -21.722544 0.975490 -3.970317 16.422576 
1.220605 6.647602 4.406453 -1.601215 7.665507 -4.528209 0.000000 0.000000 0.000000 2.406785 -7.454383 6.666413 2.104557 -0.985113 1.627436 0.000000 0.000000 0.000000 2.270654 -0.834775 1.591942 -2.910284 6.716617 -9.354091 2.176659 -0.796271 1.602301 -0.146889 -2.634475 0.845823 -52.183977 9.724746 41.806781 -9.083531 -89.734647 9.362106 2.228071 -0.870248 1.393726 2.184912 3.628721 0.728088 59.080768 49.075928 24.123771 -0.145836 60.924069 0.041562 0.000000 0.000000 -0.000000 10.193797 10.410195 -23.350488 -12.583218 1.544030 39.897506 -0.000000 0.000000 0.000000 -2.760516 -6.464115 -23.488740 -0.248153 -9.038986 16.440381 
3.157472 6.582636 6.400449 -1.038514 5.923524 -4.304204 0.000000 0.000000 0.000000 2.765282 -6.417011 6.030502 2.411359 -0.870961 1.784543 0.000000 0.000000 0.000000 2.525259 -0.731690 1.874415 -3.702794 7.287328 -8.741033 2.453592 -0.643319 1.823790 -1.326218 -1.638194 0.802722 -48.404272 9.061428 40.608129 -2.848834 -89.137635 3.015027 2.444191 -0.794345 1.617609 1.585608 3.270478 0.623597 64.823050 52.574459 25.540607 -0.097769 64.645868 0.120893 0.000000 -0.000000 0.000000 8.804494 9.660351 -17.264252 -12.366150 -1.168149 29.211733 -0.000000 0.000000 0.000000 -1.698381 -7.582225 -24.654983 -1.396191 -11.646016 18.111766 
5.046072 6.225163 7.974011 -0.448810 3.825732 -4.214877 0.000000 0.000000 0.000000 3.796289 -4.040388 6.483728 2.178653 -0.587227 1.751378 0.000000 0.000000 0.000000 2.264111 -0.514996 1.943325 -4.446225 7.503952 -7.774323 2.179701 -0.351048 1.855861 -2.417472 0.014603 0.629417 -42.871844 11.402790 36.020443 179.812757 -88.208494 -179.695820 2.220511 -0.568416 1.743843 1.127081 3.220547 0.588054 69.557688 53.814952 27.287193 -0.011145 68.495476 0.247282 0.000000 -0.000000 0.000000 6.348088 7.672636 -14.175884 -11.028709 -0.984655 21.641217 -0.000000 0.000000 0.000000 -1.060924 -8.670274 -23.724406 -0.717333 -10.931369 20.652898 
6.804457 5.674864 9.037025 0.264295 1.284427 -4.471237 0.000000 0.000000 0.000000 6.305336 0.438509 7.898922 1.116407 -0.133398 1.527512 0.000000 0.000000 0.000000 1.255254 -0.172472 1.777461 -5.602125 7.077223 -5.654639 1.199600 0.050804 1.854587 -3.736405 2.105861 0.354562 -37.455654 15.825394 31.764022 179.739637 -82.379661 -179.643888 1.533102 -0.243151 1.755911 0.582685 3.453121 0.616533 72.345024 53.621645 27.800850 0.024760 72.627231 0.283146 0.000000 -0.000000 -0.000000 3.796736 5.687423 -14.937678 -7.456555 2.774660 23.371384 -0.000000 0.000000 0.000000 -0.871853 -9.637718 -21.725072 0.881001 -8.187717 24.536314 
8.376496 5.017185 9.621804 1.016058 -0.684497 -4.927616 0.000000 0.000000 0.000000 9.782974 5.202092 9.385093 -0.469950 0.330514 1.352754 0.000000 0.000000 0.000000 -0.220649 0.303376 1.620125 -6.576780 6.372072 -3.344232 -0.249076 0.451335 1.784764 -5.147066 4.109746 0.024230 -33.486855 19.934180 30.282353 179.862815 -75.920446 -179.740254 -0.172395 0.236355 1.705774 0.613598 3.546595 0.673116 72.622655 52.026884 26.454155 0.062814 76.348806 0.341120 0.000000 -0.000000 -0.000000 1.699344 4.999633 -16.164824 -4.394913 5.717947 26.660186 -0.000000 0.000000 0.000000 -1.235086 -10.360371 -21.074910 -0.635674 -7.255767 27.849775 
